<svg width="78" height="36" viewBox="0 0 78 36" fill="none" xmlns="http://www.w3.org/2000/svg">
<path d="M15.9907 1.064H21.0307L25.2547 12.632L29.5267 1.064H34.5667L28.7107 16.232L33.7987 28.76L44.4067 0.919998H50.3107L36.3427 35H31.6867L25.3027 19.736L18.8707 35H14.1667L0.246688 0.919998H6.10269L16.7587 28.76L21.8467 16.232L15.9907 1.064ZM73.6016 8.936C73.2816 8.584 72.8176 8.216 72.2096 7.832C71.6016 7.416 70.8816 7.032 70.0496 6.68C69.2176 6.328 68.3216 6.04 67.3616 5.816C66.4016 5.592 65.4096 5.48 64.3856 5.48C62.1456 5.48 60.4816 5.896 59.3936 6.728C58.3056 7.56 57.7616 8.712 57.7616 10.184C57.7616 11.272 58.0656 12.136 58.6736 12.776C59.2816 13.384 60.2096 13.896 61.4576 14.312C62.7056 14.728 64.2736 15.176 66.1616 15.656C68.4656 16.2 70.4656 16.856 72.1616 17.624C73.8576 18.36 75.1536 19.352 76.0496 20.6C76.9456 21.848 77.3936 23.496 77.3936 25.544C77.3936 27.272 77.0736 28.76 76.4336 30.008C75.7936 31.256 74.8976 32.28 73.7456 33.08C72.5936 33.848 71.2656 34.424 69.7616 34.808C68.2576 35.16 66.6416 35.336 64.9136 35.336C63.2176 35.336 61.5216 35.16 59.8256 34.808C58.1616 34.456 56.5616 33.944 55.0256 33.272C53.5216 32.568 52.1296 31.72 50.8496 30.728L53.2976 26.12C53.7136 26.536 54.3056 27 55.0736 27.512C55.8736 27.992 56.7856 28.456 57.8096 28.904C58.8656 29.352 60.0016 29.736 61.2176 30.056C62.4656 30.344 63.7296 30.488 65.0096 30.488C67.1536 30.488 68.7856 30.12 69.9056 29.384C71.0576 28.616 71.6336 27.528 71.6336 26.12C71.6336 24.968 71.2656 24.056 70.5296 23.384C69.7936 22.68 68.7216 22.088 67.3136 21.608C65.9056 21.128 64.2256 20.648 62.2736 20.168C60.0336 19.56 58.1616 18.904 56.6576 18.2C55.1536 17.464 54.0176 16.536 53.2496 15.416C52.5136 14.264 52.1456 12.808 52.1456 11.048C52.1456 8.808 52.6896 6.92 53.7776 5.384C54.8656 3.816 56.3376 2.648 58.1936 1.88C60.0816 1.08 62.1936 0.679998 64.5296 0.679998C66.0656 0.679998 67.5216 0.855998 68.8976 1.208C70.2736 1.528 71.5536 1.976 72.7376 2.552C73.9536 3.128 75.0576 3.784 76.0496 4.52L73.6016 8.936Z" fill="url(#paint0_linear_2_22)"/>
<defs>
<linearGradient id="paint0_linear_2_22" x1="37.7719" y1="-18.1053" x2="77.0098" y2="4.71499" gradientUnits="userSpaceOnUse">
<stop stop-color="#FE53BB"/>
<stop offset="1" stop-color="#09FBD3"/>
</linearGradient>
</defs>
</svg>
